# File created by Blade
# Date/Time:  Thu Jan 22 16:21:39 2015
# Frame Rate: 120.000 fps
#------------------------------------------------------
:FULLY-SPECIFIED
:DEGREES
2252
root 2.115398 37.938576 6.503066 -17.600689 -13.972875 10.138589
RightUpLeg 20.144624 0.011414 -7.670545
RightLeg 2.283362 -0.000000 -0.000000
RightFoot -11.689245 -8.390174 10.688146
RightToeBase 7.407374 -0.000000 -0.000000
LeftUpLeg -71.492871 -26.422157 -16.765241
LeftLeg 109.329913 -0.000000 -0.000000
LeftFoot 4.262233 11.645878 -31.667133
LeftToeBase 6.921552 -0.000000 -0.000000
Spine 37.327898 35.111907 28.201471
RightShoulder 6.090049 -19.582796 -26.609263
RightArm 16.016899 -9.540053 54.441243
RightForeArm -14.545443 -0.000000 83.001026
RightHand -6.584978 -0.000000 8.982587
RightHandThumb1 -24.326973 -0.000000 -32.862282
LeftShoulder -40.967149 32.040902 1.031077
LeftArm 34.453157 -64.076895 -78.962733
LeftForeArm -15.499974 0.000000 6.109276
LeftHand -28.605365 0.000000 42.096208
LeftHandThumb1 -26.253704 0.000000 33.147579
Head 5.906332 74.927736 -19.979266
2253
root 2.133685 37.944238 6.483006 -17.464080 -13.969942 10.134918
RightUpLeg 20.001357 0.358431 -7.518188
RightLeg 2.251156 -0.000000 -0.000000
RightFoot -11.725708 -8.834505 10.558636
RightToeBase 7.227107 -0.000000 -0.000000
LeftUpLeg -71.530058 -26.419881 -16.807131
LeftLeg 109.212552 -0.000000 -0.000000
LeftFoot 4.166820 11.681104 -31.675660
LeftToeBase 6.964974 -0.000000 -0.000000
Spine 37.137474 35.193342 27.958538
RightShoulder 6.101931 -19.514791 -26.539703
RightArm 16.029784 -9.597832 54.587575
RightForeArm -14.780845 -0.000000 82.893858
RightHand -6.598994 -0.000000 8.961282
RightHandThumb1 -24.326973 -0.000000 -32.862282
LeftShoulder -40.989016 32.025483 1.080018
LeftArm 34.454923 -64.058604 -78.965569
LeftForeArm -15.275669 -0.000000 6.028345
LeftHand -28.653050 -0.000000 41.864554
LeftHandThumb1 -26.253704 0.000000 33.147579
Head 6.030065 74.922726 -19.838406
2254
root 2.152945 37.951208 6.465428 -17.346282 -13.975526 10.152898
RightUpLeg 19.876093 0.648798 -7.393021
RightLeg 2.210246 -0.000000 -0.000000
RightFoot -11.785399 -9.272732 10.378995
RightToeBase 7.173308 -0.000000 -0.000000
LeftUpLeg -71.571875 -26.417458 -16.863564
LeftLeg 109.124483 -0.000000 -0.000000
LeftFoot 4.045030 11.671919 -31.686519
LeftToeBase 7.102736 -0.000000 -0.000000
Spine 36.996782 35.316885 27.744664
RightShoulder 6.069728 -19.496912 -26.455008
RightArm 16.065154 -9.651308 54.681303
RightForeArm -15.006226 -0.000000 82.818978
RightHand -6.621747 -0.000000 8.946918
RightHandThumb1 -24.326973 -0.000000 -32.862282
LeftShoulder -40.929268 31.964314 1.193081
LeftArm 34.358454 -64.079655 -78.892070
LeftForeArm -15.125362 -0.000000 5.962117
LeftHand -28.718830 -0.000000 41.838810
LeftHandThumb1 -26.253704 0.000000 33.147579
Head 5.967117 74.850123 -19.879415
2255
root 2.173774 37.959335 6.448069 -17.254593 -13.977016 10.199096
RightUpLeg 19.755923 0.859299 -7.332600
RightLeg 2.195657 -0.000000 -0.000000
RightFoot -11.820288 -9.659997 10.143000
RightToeBase 7.023430 -0.000000 -0.000000
LeftUpLeg -71.606196 -26.427626 -16.939062
LeftLeg 109.051598 -0.000000 -0.000000
LeftFoot 3.945881 11.624314 -31.683531
LeftToeBase 7.009574 -0.000000 -0.000000
Spine 36.885403 35.409610 27.486297
RightShoulder 6.056162 -19.430107 -26.399684
RightArm 16.099086 -9.750025 54.764066
RightForeArm -15.119728 -0.000000 82.755603
RightHand -6.626453 -0.000000 8.956322
RightHandThumb1 -24.326973 -0.000000 -32.862282
LeftShoulder -40.898497 31.859631 1.343705
LeftArm 34.166851 -64.098043 -78.771583
LeftForeArm -15.066962 -0.000000 5.909027
LeftHand -28.749330 -0.000000 41.669912
LeftHandThumb1 -26.253704 0.000000 33.147579
Head 5.749693 74.891780 -20.054889
2256
root 2.196543 37.969125 6.431366 -17.192394 -13.999073 10.266673
RightUpLeg 19.611750 0.914321 -7.356522
RightLeg 2.248579 -0.000000 -0.000000
RightFoot -11.833907 -9.907101 9.870566
RightToeBase 7.013809 -0.000000 -0.000000
LeftUpLeg -71.623448 -26.423392 -17.033787
LeftLeg 108.990514 -0.000000 -0.000000
LeftFoot 3.829245 11.567988 -31.708290
LeftToeBase 6.937406 -0.000000 -0.000000
Spine 36.830160 35.495904 27.260129
RightShoulder 6.056479 -19.380965 -26.379982
RightArm 16.128922 -9.816459 54.816923
RightForeArm -15.290956 -0.000000 82.706267
RightHand -6.603443 -0.000000 8.977221
RightHandThumb1 -24.326973 -0.000000 -32.862282
LeftShoulder -40.915093 31.903031 1.338758
LeftArm 34.392231 -64.190445 -79.024856
LeftForeArm -15.154347 -0.000000 5.812573
LeftHand -28.694168 -0.000000 41.580832
LeftHandThumb1 -26.253704 0.000000 33.147579
Head 5.420245 74.915043 -20.360543
2257
root 2.220029 37.978264 6.414678 -17.139581 -14.030346 10.331349
RightUpLeg 19.438934 0.878912 -7.421179
RightLeg 2.364121 -0.000000 -0.000000
RightFoot -11.822921 -10.017747 9.584973
RightToeBase 6.944723 -0.000000 -0.000000
LeftUpLeg -71.657635 -26.435754 -17.106131
LeftLeg 108.950652 -0.000000 -0.000000
LeftFoot 3.761597 11.493011 -31.716704
LeftToeBase 6.856214 -0.000000 -0.000000
Spine 36.815342 35.610116 27.084784
RightShoulder 6.043711 -19.389524 -26.375539
RightArm 16.161508 -9.858220 54.829696
RightForeArm -15.405308 -0.000000 82.691564
RightHand -6.605316 -0.000000 9.038384
RightHandThumb1 -24.326973 -0.000000 -32.862282
LeftShoulder -40.845180 31.869572 1.421168
LeftArm 34.468297 -64.338102 -79.163854
LeftForeArm -15.273130 -0.000000 5.751958
LeftHand -28.697428 -0.000000 41.662930
LeftHandThumb1 -26.253704 0.000000 33.147579
Head 4.895073 74.783642 -20.854379
2258
root 2.246564 37.987824 6.400148 -17.115415 -14.069104 10.404286
RightUpLeg 19.264081 0.838101 -7.519172
RightLeg 2.530121 -0.000000 -0.000000
RightFoot -11.762331 -10.051902 9.278156
RightToeBase 6.706727 -0.000000 -0.000000
LeftUpLeg -71.685348 -26.464583 -17.183709
LeftLeg 108.925949 -0.000000 -0.000000
LeftFoot 3.714135 11.448517 -31.748002
LeftToeBase 6.981118 -0.000000 -0.000000
Spine 36.834893 35.698574 26.937073
RightShoulder 6.064168 -19.386772 -26.416262
RightArm 16.165849 -9.922880 54.814264
RightForeArm -15.443824 -0.000000 82.704318
RightHand -6.697481 -0.000000 9.062560
RightHandThumb1 -24.326973 -0.000000 -32.862282
LeftShoulder -40.773856 31.851401 1.480098
LeftArm 34.452603 -64.446401 -79.197184
LeftForeArm -15.457717 -0.000000 5.681231
LeftHand -28.693185 0.000000 41.728270
LeftHandThumb1 -26.253704 0.000000 33.147579
Head 4.432987 74.682153 -21.310909
2259
root 2.272871 37.995911 6.386113 -17.115209 -14.128751 10.454366
RightUpLeg 19.085874 0.831996 -7.602003
RightLeg 2.756941 -0.000000 -0.000000
RightFoot -11.764925 -9.992458 9.123574
RightToeBase 6.570339 -0.000000 -0.000000
LeftUpLeg -71.700082 -26.479947 -17.240498
LeftLeg 108.938024 -0.000000 -0.000000
LeftFoot 3.695278 11.403413 -31.726425
LeftToeBase 6.962476 -0.000000 -0.000000
Spine 36.894235 35.752991 26.827532
RightShoulder 6.091989 -19.383458 -26.461734
RightArm 16.166041 -9.975057 54.739682
RightForeArm -15.263708 -0.000000 82.739414
RightHand -6.784802 0.000000 9.029969
RightHandThumb1 -24.326973 -0.000000 -32.862282
LeftShoulder -40.809090 31.844546 1.491283
LeftArm 34.599285 -64.556852 -79.379030
LeftForeArm -15.545752 -0.000000 5.601728
LeftHand -28.753422 -0.000000 41.858256
LeftHandThumb1 -26.253704 0.000000 33.147579
Head 4.072187 74.710255 -21.649298
2260
root 2.296141 38.002346 6.372511 -17.119888 -14.203525 10.473816
RightUpLeg 18.918689 0.881222 -7.635178
RightLeg 2.984158 -0.000000 -0.000000
RightFoot -11.767565 -9.951130 8.997112
RightToeBase 6.424029 -0.000000 -0.000000
LeftUpLeg -71.727262 -26.498231 -17.258440
LeftLeg 108.978864 -0.000000 -0.000000
LeftFoot 3.696340 11.364102 -31.681478
LeftToeBase 6.926720 -0.000000 -0.000000
Spine 36.997698 35.863129 26.822454
RightShoulder 6.045254 -19.396971 -26.502345
RightArm 16.125827 -10.027722 54.667574
RightForeArm -15.079636 -0.000000 82.768344
RightHand -6.715971 -0.000000 8.980801
RightHandThumb1 -24.326973 -0.000000 -32.862282
LeftShoulder -40.721518 31.819726 1.579579
LeftArm 34.448388 -64.575514 -79.291340
LeftForeArm -15.627309 -0.000000 5.607325
LeftHand -28.961098 0.000000 42.036569
LeftHandThumb1 -26.253704 0.000000 33.147579
Head 3.791869 74.646306 -21.882105
